<svg xmlns="http://www.w3.org/2000/svg" viewBox="0 0 480 420" fill="none">
  <defs>
    <linearGradient id="blob1" x1="0" y1="0" x2="1" y2="1">
      <stop offset="0%" stop-color="#c9982e" stop-opacity="0.35"/>
      <stop offset="100%" stop-color="#c9982e" stop-opacity="0.05"/>
    </linearGradient>
    <linearGradient id="blob2" x1="1" y1="0" x2="0" y2="1">
      <stop offset="0%" stop-color="#ffffff" stop-opacity="0.18"/>
      <stop offset="100%" stop-color="#ffffff" stop-opacity="0.02"/>
    </linearGradient>
  </defs>

  <path d="M240 30c85 0 165 45 195 120 28 71 -10 165 -95 200 -85 34 -190 10 -240 -55C50 230 30 150 75 90 118 33 175 30 240 30Z" fill="url(#blob1)"/>
  <circle cx="360" cy="110" r="70" fill="url(#blob2)"/>
  <circle cx="90" cy="300" r="46" fill="url(#blob2)"/>

  <g stroke="#ffffff" stroke-opacity="0.25" stroke-width="1.5">
    <circle cx="240" cy="210" r="120" stroke-dasharray="4 8"/>
    <circle cx="240" cy="210" r="150" stroke-dasharray="2 10"/>
  </g>

  <rect x="150" y="150" width="180" height="130" rx="14" fill="#0f1e3d" stroke="#c9982e" stroke-width="2"/>
  <rect x="170" y="172" width="90" height="10" rx="5" fill="#c9982e"/>
  <rect x="170" y="196" width="140" height="8" rx="4" fill="#ffffff" fill-opacity="0.6"/>
  <rect x="170" y="214" width="120" height="8" rx="4" fill="#ffffff" fill-opacity="0.4"/>
  <rect x="170" y="244" width="70" height="24" rx="12" fill="#c9982e"/>

  <g transform="translate(280,110)">
    <circle r="34" fill="#c9982e"/>
    <path d="M-14 0l9 9 19 -19" stroke="#0f1e3d" stroke-width="5" stroke-linecap="round" stroke-linejoin="round" fill="none"/>
  </g>

  <g transform="translate(120,120)">
    <circle r="26" fill="#ffffff"/>
    <path d="M-10 3c0 -6 5 -10 10 -10s10 4 10 10c0 6 -10 14 -10 14s-10 -8 -10 -14Z" fill="#c9982e"/>
  </g>

  <g transform="translate(330,300)">
    <circle r="28" fill="#ffffff" fill-opacity="0.9"/>
    <path d="M-9 -3l4 7 4 -12 4 8 4 -3" stroke="#0f1e3d" stroke-width="3" fill="none" stroke-linecap="round" stroke-linejoin="round"/>
  </g>
</svg>
